<svg xmlns="http://www.w3.org/2000/svg" xmlns:svg="http://www.w3.org/2000/svg" id="Layer_1" width="120" height="120" version="1.1" viewBox="0 0 496.8 496.8" xml:space="preserve"><g id="g3158"><path style="display:inline;fill:#121c1b;fill-opacity:1;stroke-width:1.584" id="path8" d="m 248.87519,445.92001 c 116.5824,0 212.8896,-91.2384 220.4928,-205.2864 0,5.0688 1.2672,8.8704 1.2672,13.9392 0,121.6512 -98.8416,221.76 -221.76,221.76 -121.6512,0 -221.759991,-98.8416 -221.759991,-221.76 0,-5.0688 0,-8.8704 1.2672,-13.9392 7.6032,114.048 103.910391,205.2864 220.492791,205.2864 z"/><circle style="display:inline;fill:#283538;fill-opacity:1;stroke-width:1.584" id="circle12" cx="248.875" cy="243.071" r="221.76"/><path style="display:inline;fill:#000;fill-opacity:.153846;stroke-width:1.58653" id="path14" d="m 405.74362,86.606184 c 86.3078,86.307816 86.3078,227.192636 0,313.500456 -86.30783,86.3078 -227.19264,86.3078 -313.500453,0"/></g><g id="g3198"><circle style="display:none;fill:#000;fill-opacity:0;stroke-width:1.584" id="circle12-3" cx="-154.88" cy="311.577" r="221.76" transform="rotate(-72)"/><path style="display:inline;fill:#121c1b;fill-opacity:1;stroke-width:1.584" id="path3789" d="m 143.44771,203.77606 c 7.23107,2.34953 10.48544,8.73659 8.13592,15.96766 v 0 c -2.34952,7.23107 -8.73658,10.48544 -15.96766,8.13592 L 87.408817,212.21619 c -7.231072,-2.34953 -10.485441,-8.73659 -8.135924,-15.96766 v 0 c 2.349518,-7.23107 8.736579,-10.48544 15.967652,-8.13592 z"/><path style="display:inline;fill:#ea398a;stroke-width:1.584" id="path915" d="m 143.55713,195.74179 c 7.23108,2.34953 10.48545,8.73659 8.13593,15.96766 v 0 c -2.34952,7.23107 -8.73658,10.48544 -15.96765,8.13593 L 87.518248,204.18192 c -7.231071,-2.34952 -10.485442,-8.73658 -8.135923,-15.96765 v 0 c 2.349517,-7.23108 8.736578,-10.48545 15.967651,-8.13593 z"/></g></svg>