<svg xmlns="http://www.w3.org/2000/svg" xmlns:svg="http://www.w3.org/2000/svg" id="svg1" width="300" height="300" version="1.1" viewBox="0 0 79.375 79.375"><defs id="defs1"><filter id="mask-powermask-path-effect5_inverse" width="100" height="100" x="-50" y="-50" style="color-interpolation-filters:sRGB"><feColorMatrix id="mask-powermask-path-effect5_primitive1" result="fbSourceGraphic" type="saturate" values="1"/><feColorMatrix id="mask-powermask-path-effect5_primitive2" in="fbSourceGraphic" values="-1 0 0 0 1 0 -1 0 0 1 0 0 -1 0 1 0 0 0 1 0"/></filter><clipPath id="clipPath1" clipPathUnits="userSpaceOnUse"><circle style="display:inline;fill:#000;fill-opacity:1;stroke:none;stroke-width:.21372" id="circle3" cx="44.886" cy="38.249" r="22.842"/></clipPath><clipPath id="clipPath3" clipPathUnits="userSpaceOnUse"><circle style="display:inline;opacity:1;fill:#000;fill-opacity:1;stroke:none;stroke-width:2.64583;stroke-dasharray:none;stroke-opacity:1" id="circle4" cx="39.235" cy="39.029" r="25.959"/></clipPath><clipPath id="clipPath4" clipPathUnits="userSpaceOnUse"><circle style="display:inline;opacity:1;fill:#000;fill-opacity:1;stroke:none;stroke-width:.242893" id="circle5" cx="39.997" cy="39.029" r="25.959"/></clipPath><clipPath id="clipPath19" clipPathUnits="userSpaceOnUse"><g id="g20" style="display:inline"><circle style="display:inline;opacity:1;fill:#fff;fill-opacity:1;stroke:#000;stroke-width:1.323;stroke-dasharray:none;stroke-opacity:1" id="circle20" cx="39.997" cy="39.029" r="25.959"/><path style="display:inline;fill:#fff;fill-opacity:1;stroke:none;stroke-width:1.323;stroke-linecap:round;stroke-linejoin:round;stroke-dasharray:none;stroke-opacity:1" id="path20" d="M 40.972417,71.748504 65.106856,9.0738004 51.262295,8.5125342 29.653552,71.374327 Z"/></g></clipPath></defs><g id="layer1"><circle style="display:inline;opacity:1;fill:#c27a7c;fill-opacity:1;stroke:none;stroke-width:2.64583;stroke-dasharray:none;stroke-opacity:1" id="path1" cx="39.997" cy="39.029" r="25.959"/><circle style="display:inline;opacity:1;fill:#e69a9c;fill-opacity:1;stroke:#ffcccd;stroke-width:1.32292;stroke-linecap:round;stroke-linejoin:round;stroke-dasharray:none;stroke-opacity:1" id="path23" cx="59.239" cy="65.282" r="3.979"/><path style="display:inline;opacity:1;fill:#6591a3;fill-opacity:1;stroke:none;stroke-width:2.64583;stroke-linecap:round;stroke-linejoin:round;stroke-dasharray:none;stroke-opacity:1" id="path4" d="M 14.113556,8.1829745 56.98133,12.94242 37.386776,66.72921 7.3373035,66.366241 Z" clip-path="url(#clipPath4)"/><path style="display:inline;opacity:1;fill:#576a8f;fill-opacity:1;stroke:none;stroke-width:2.64583;stroke-linecap:round;stroke-linejoin:round;stroke-dasharray:none;stroke-opacity:1" id="path8" d="m 38.53683,10.093324 c -4.365942,9.204371 -6.195104,15.177206 -7.207595,27.726667 -0.991944,12.294793 2.307273,27.137042 4.047673,28.491534 L 8.1586184,69.098661 11.655182,10.116831 Z" clip-path="url(#clipPath3)" transform="translate(0.76197263)"/><path style="display:inline;opacity:1;fill:#4b4b7d;fill-opacity:1;stroke:none;stroke-width:2.64583;stroke-linecap:round;stroke-linejoin:round;stroke-dasharray:none;stroke-opacity:1" id="path12" d="m 42.192726,12.318411 c -4.211383,1.986898 -14.038715,6.1886 -14.817953,16.984439 -1.04881,14.530574 8.416642,27.085895 14.90106,33.18835 l -22.176874,3.329798 -0.9709,-51.470147 z" clip-path="url(#clipPath1)" transform="matrix(1.1365005,0,0,1.1365005,-11.015826,-4.4408595)"/><path style="display:inline;fill:none;stroke:#fff;stroke-width:5.29167;stroke-linecap:round;stroke-linejoin:round;stroke-dasharray:none;stroke-opacity:1" id="path2" d="M 56.155019,14.892653 37.161315,67.306549 c 0.34522,-0.825973 6.533363,-17.660613 9.643704,-21.103821 4.780254,-5.291832 13.007552,-2.764636 13.142556,4.977296 0.04382,2.512914 -1.431223,15.998469 -1.431223,15.998469" clip-path="url(#clipPath19)" mask="none"/><circle style="display:inline;opacity:1;fill:none;fill-opacity:0;stroke:#ffcccd;stroke-width:1.32292;stroke-dasharray:none;stroke-opacity:1" id="circle8" cx="39.997" cy="39.029" r="25.959"/></g></svg>